REM DIRINDEX 1\2,1\3,1\4,1\5
REM DIRNAME "folder01","folder02","folder03","folder04","folder05"
TITLE ""
FILE "P1Q_j_1884-1897.mp3" MP3
  TRACK 01 AUDIO
    TITLE "3:cjc173_0854"
    INDEX 01 00:00:00
  TRACK 02 AUDIO
    TITLE "0:"
    INDEX 01 00:01:35
  TRACK 03 AUDIO
    TITLE "4:cjc173_0855"
    INDEX 01 00:01:55
  TRACK 04 AUDIO
    TITLE "0:"
    INDEX 01 00:08:04
  TRACK 05 AUDIO
    TITLE "5:cjc173_0856"
    INDEX 01 00:08:24
  TRACK 06 AUDIO
    TITLE "0:"
    INDEX 01 00:12:17
  TRACK 07 AUDIO
    TITLE "3:cjc173_0857"
    INDEX 01 00:12:62
  TRACK 08 AUDIO
    TITLE "0:"
    INDEX 01 00:14:10
  TRACK 09 AUDIO
    TITLE "4:cjc173_0858"
    INDEX 01 00:14:30
  TRACK 10 AUDIO
    TITLE "0:"
    INDEX 01 00:17:21
  TRACK 11 AUDIO
    TITLE "5:cjc173_0859"
    INDEX 01 00:17:40
  TRACK 12 AUDIO
    TITLE "0:"
    INDEX 01 00:21:65
  TRACK 13 AUDIO
    TITLE "3:cjc173_0860"
    INDEX 01 00:22:35
  TRACK 14 AUDIO
    TITLE "0:"
    INDEX 01 00:23:51
  TRACK 15 AUDIO
    TITLE "4:cjc173_0861"
    INDEX 01 00:23:70
  TRACK 16 AUDIO
    TITLE "0:"
    INDEX 01 00:26:66
  TRACK 17 AUDIO
    TITLE "5:cjc173_0862"
    INDEX 01 00:27:11
  TRACK 18 AUDIO
    TITLE "0:"
    INDEX 01 00:31:42
  TRACK 19 AUDIO
    TITLE "3:cjc173_0863"
    INDEX 01 00:32:12
  TRACK 20 AUDIO
    TITLE "0:"
    INDEX 01 00:33:41
  TRACK 21 AUDIO
    TITLE "4:cjc173_0864"
    INDEX 01 00:33:61
  TRACK 22 AUDIO
    TITLE "0:"
    INDEX 01 00:40:08
  TRACK 23 AUDIO
    TITLE "5:cjc173_0865"
    INDEX 01 00:40:27
  TRACK 24 AUDIO
    TITLE "0:"
    INDEX 01 00:43:57
  TRACK 25 AUDIO
    TITLE "3:cjc173_0866"
    INDEX 01 00:44:25
  TRACK 26 AUDIO
    TITLE "0:"
    INDEX 01 00:46:03
  TRACK 27 AUDIO
    TITLE "4:cjc173_0867"
    INDEX 01 00:46:24
  TRACK 28 AUDIO
    TITLE "0:"
    INDEX 01 00:50:45
  TRACK 29 AUDIO
    TITLE "5:cjc173_0868"
    INDEX 01 00:50:65
  TRACK 30 AUDIO
    TITLE "0:"
    INDEX 01 00:54:67
  TRACK 31 AUDIO
    TITLE "3:cjc173_0869"
    INDEX 01 00:55:39
  TRACK 32 AUDIO
    TITLE "0:"
    INDEX 01 00:56:75
  TRACK 33 AUDIO
    TITLE "4:cjc173_0870"
    INDEX 01 00:57:22
  TRACK 34 AUDIO
    TITLE "0:"
    INDEX 01 01:02:62
  TRACK 35 AUDIO
    TITLE "5:cjc173_0871"
    INDEX 01 01:03:05
  TRACK 36 AUDIO
    TITLE "0:"
    INDEX 01 01:07:36
  TRACK 37 AUDIO
    TITLE "3:cjc173_0872"
    INDEX 01 01:08:06
  TRACK 38 AUDIO
    TITLE "0:"
    INDEX 01 01:09:37
  TRACK 39 AUDIO
    TITLE "4:cjc173_0873"
    INDEX 01 01:09:57
  TRACK 40 AUDIO
    TITLE "0:"
    INDEX 01 01:11:53
  TRACK 41 AUDIO
    TITLE "5:cjc173_0874"
    INDEX 01 01:11:73
  TRACK 42 AUDIO
    TITLE "0:"
    INDEX 01 01:15:57
  TRACK 43 AUDIO
    TITLE "3:cjc173_0875"
    INDEX 01 01:16:27
  TRACK 44 AUDIO
    TITLE "0:"
    INDEX 01 01:17:68
  TRACK 45 AUDIO
    TITLE "4:cjc173_0876"
    INDEX 01 01:18:12
  TRACK 46 AUDIO
    TITLE "0:"
    INDEX 01 01:23:12
  TRACK 47 AUDIO
    TITLE "5:cjc173_0877"
    INDEX 01 01:23:31
  TRACK 48 AUDIO
    TITLE "0:"
    INDEX 01 01:28:24
  TRACK 49 AUDIO
    TITLE "3:cjc173_0878"
    INDEX 01 01:28:70
  TRACK 50 AUDIO
    TITLE "0:"
    INDEX 01 01:30:35
  TRACK 51 AUDIO
    TITLE "4:cjc173_0879"
    INDEX 01 01:30:55
  TRACK 52 AUDIO
    TITLE "0:"
    INDEX 01 01:34:68
  TRACK 53 AUDIO
    TITLE "5:cjc173_0880"
    INDEX 01 01:35:05
  TRACK 54 AUDIO
    TITLE "0:"
    INDEX 01 01:38:09
  TRACK 55 AUDIO
    TITLE "3:cjc173_0881"
    INDEX 01 01:38:54
  TRACK 56 AUDIO
    TITLE "0:"
    INDEX 01 01:40:12
  TRACK 57 AUDIO
    TITLE "4:cjc173_0882"
    INDEX 01 01:40:32
  TRACK 58 AUDIO
    TITLE "0:"
    INDEX 01 01:46:26
  TRACK 59 AUDIO
    TITLE "5:cjc173_0883"
    INDEX 01 01:46:50
  TRACK 60 AUDIO
    TITLE "0:"
    INDEX 01 01:50:61
  TRACK 61 AUDIO
    TITLE "3:cjc173_0884"
    INDEX 01 01:51:31
  TRACK 62 AUDIO
    TITLE "0:"
    INDEX 01 01:52:56
  TRACK 63 AUDIO
    TITLE "4:cjc173_0885"
    INDEX 01 01:53:03
  TRACK 64 AUDIO
    TITLE "0:"
    INDEX 01 01:58:69
  TRACK 65 AUDIO
    TITLE "5:cjc173_0886"
    INDEX 01 01:59:11
  TRACK 66 AUDIO
    TITLE "0:"
    INDEX 01 02:03:46
  TRACK 67 AUDIO
    TITLE "3:cjc173_0887"
    INDEX 01 02:04:16
  TRACK 68 AUDIO
    TITLE "0:"
    INDEX 01 02:05:41
  TRACK 69 AUDIO
    TITLE "4:cjc173_0888"
    INDEX 01 02:05:63
  TRACK 70 AUDIO
    TITLE "0:"
    INDEX 01 02:08:12
  TRACK 71 AUDIO
    TITLE "5:cjc173_0889"
    INDEX 01 02:08:32
  TRACK 72 AUDIO
    TITLE "0:"
    INDEX 01 02:12:63
  TRACK 73 AUDIO
    TITLE "3:cjc173_0890"
    INDEX 01 02:13:33
  TRACK 74 AUDIO
    TITLE "0:"
    INDEX 01 02:14:64
  TRACK 75 AUDIO
    TITLE "4:cjc173_0891"
    INDEX 01 02:15:08
  TRACK 76 AUDIO
    TITLE "0:"
    INDEX 01 02:21:27
  TRACK 77 AUDIO
    TITLE "5:cjc173_0892"
    INDEX 01 02:21:46
  TRACK 78 AUDIO
    TITLE "0:"
    INDEX 01 02:27:51
  TRACK 79 AUDIO
    TITLE "3:cjc173_0893"
    INDEX 01 02:28:19
  TRACK 80 AUDIO
    TITLE "0:"
    INDEX 01 02:29:50
  TRACK 81 AUDIO
    TITLE "4:cjc173_0894"
    INDEX 01 02:29:69
  TRACK 82 AUDIO
    TITLE "0:"
    INDEX 01 02:31:72
  TRACK 83 AUDIO
    TITLE "5:cjc173_0895"
    INDEX 01 02:32:17
  TRACK 84 AUDIO
    TITLE "0:"
    INDEX 01 02:36:75
